<?xml version="1.0" encoding="UTF-8" standalone="no"?><svg xmlns="http://www.w3.org/2000/svg" xmlns:xlink="http://www.w3.org/1999/xlink" contentScriptType="application/ecmascript" contentStyleType="text/css" height="202px" preserveAspectRatio="none" style="width:391px;height:202px;" version="1.1" viewBox="0 0 391 202" width="391px" zoomAndPan="magnify"><defs><filter height="300%" id="fql5w4jdnj8z8" width="300%" x="-1" y="-1"><feGaussianBlur result="blurOut" stdDeviation="2.0"/><feColorMatrix in="blurOut" result="blurOut2" type="matrix" values="0 0 0 0 0 0 0 0 0 0 0 0 0 0 0 0 0 0 .4 0"/><feOffset dx="4.0" dy="4.0" in="blurOut2" result="blurOut3"/><feBlend in="SourceGraphic" in2="blurOut3" mode="normal"/></filter></defs><g><!--MD5=[1c69cb5800dab547d79c19121725b5a2]
class 料理する人--><rect codeLine="1" fill="#FEFECE" filter="url(#fql5w4jdnj8z8)" height="60.8047" id="料理する人" style="stroke:#A80036;stroke-width:1.5;" width="103" x="13.5" y="7"/><ellipse cx="33.45" cy="23" fill="#ADD1B2" rx="11" ry="11" style="stroke:#A80036;stroke-width:1.0;"/><path d="M35.7938,18.6719 C34.8563,18.2344 34.2625,18.0938 33.3875,18.0938 C30.7625,18.0938 28.7625,20.1719 28.7625,22.8906 L28.7625,24.0156 C28.7625,26.5938 30.8719,28.4844 33.7625,28.4844 C34.9813,28.4844 36.1375,28.1875 36.8875,27.6406 C37.4656,27.2344 37.7938,26.7813 37.7938,26.3906 C37.7938,25.9375 37.4031,25.5469 36.9344,25.5469 C36.7156,25.5469 36.5125,25.625 36.325,25.8125 C35.8719,26.2969 35.8719,26.2969 35.6844,26.3906 C35.2625,26.6563 34.575,26.7813 33.8094,26.7813 C31.7625,26.7813 30.4656,25.6875 30.4656,23.9844 L30.4656,22.8906 C30.4656,21.1094 31.7156,19.7969 33.45,19.7969 C34.0281,19.7969 34.6375,19.9531 35.1063,20.2031 C35.5906,20.4844 35.7625,20.7031 35.8563,21.1094 C35.9188,21.5156 35.95,21.6406 36.0906,21.7656 C36.2313,21.9063 36.4656,22.0156 36.6844,22.0156 C36.95,22.0156 37.2156,21.875 37.3875,21.6563 C37.4969,21.5 37.5281,21.3125 37.5281,20.8906 L37.5281,19.4688 C37.5281,19.0313 37.5125,18.9063 37.4188,18.75 C37.2625,18.4844 36.9813,18.3438 36.6844,18.3438 C36.3875,18.3438 36.1844,18.4375 35.9656,18.75 L35.7938,18.6719 Z " fill="#000000"/><text fill="#000000" font-family="sans-serif" font-size="12" lengthAdjust="spacing" textLength="60" x="48.55" y="27.1543">料理する人</text><line style="stroke:#A80036;stroke-width:1.5;" x1="14.5" x2="115.5" y1="39" y2="39"/><line style="stroke:#A80036;stroke-width:1.5;" x1="14.5" x2="115.5" y1="47" y2="47"/><text fill="#000000" font-family="sans-serif" font-size="11" lengthAdjust="spacing" textLength="91" x="19.5" y="61.2104">void ご飯を作る()</text><!--MD5=[6afcfefb8c16f394750a704711f9d34c]
class 食べる人--><rect codeLine="5" fill="#FEFECE" filter="url(#fql5w4jdnj8z8)" height="60.8047" id="食べる人" style="stroke:#A80036;stroke-width:1.5;" width="88" x="160" y="7"/><ellipse cx="178.6" cy="23" fill="#A9DCDF" rx="11" ry="11" style="stroke:#A80036;stroke-width:1.0;"/><path d="M180.6781,24.8125 L181.0688,25.7969 L180.6781,25.7969 C180.225,25.7969 180.1156,25.8125 179.9594,25.9219 C179.7094,26.0781 179.5531,26.3594 179.5531,26.6563 C179.5531,26.9219 179.6938,27.1719 179.9125,27.3281 C180.0531,27.4531 180.2563,27.5 180.6781,27.5 L183.0375,27.5 C183.3969,27.5 183.6156,27.4688 183.7563,27.375 C184.0063,27.2344 184.1625,26.9375 184.1625,26.6563 C184.1625,26.375 184.0219,26.125 183.8031,25.9688 C183.6313,25.8281 183.475,25.7969 183.0063,25.7969 L179.6156,17.5938 L175.9438,17.5938 C175.4906,17.5938 175.3656,17.6094 175.2094,17.7031 C174.9594,17.875 174.8031,18.1563 174.8031,18.4375 C174.8031,18.7188 174.9438,18.9688 175.1625,19.1406 C175.3344,19.25 175.5063,19.2813 175.9438,19.2813 L177.0219,19.2813 L174.3813,25.7969 C173.9594,25.7969 173.8031,25.8125 173.6469,25.9219 C173.3969,26.0781 173.2406,26.3594 173.2406,26.6563 C173.2406,27.2188 173.6156,27.5 174.3656,27.5 L176.6313,27.5 C176.9906,27.5 177.2094,27.4688 177.3344,27.375 C177.6,27.2344 177.7406,26.9375 177.7406,26.6563 C177.7406,26.375 177.6156,26.125 177.3969,25.9531 C177.225,25.8281 177.0844,25.7969 176.6313,25.7969 L176.2406,25.7969 L176.6313,24.8125 L180.6781,24.8125 Z M179.975,23.1094 L177.3031,23.1094 L178.6469,19.8438 L179.975,23.1094 Z " fill="#000000"/><text fill="#000000" font-family="sans-serif" font-size="12" font-style="italic" lengthAdjust="spacing" textLength="48" x="193.4" y="27.1543">食べる人</text><line style="stroke:#A80036;stroke-width:1.5;" x1="161" x2="247" y1="39" y2="39"/><text fill="#000000" font-family="sans-serif" font-size="11" lengthAdjust="spacing" textLength="76" x="166" y="53.2104">double 空腹率</text><line style="stroke:#A80036;stroke-width:1.5;" x1="161" x2="247" y1="59.8047" y2="59.8047"/><!--MD5=[8de03b38cde26b03043278e3637be760]
class お腹の空き具合--><rect codeLine="9" fill="#FEFECE" filter="url(#fql5w4jdnj8z8)" height="60.8047" id="お腹の空き具合" style="stroke:#A80036;stroke-width:1.5;" width="116" x="7" y="128"/><ellipse cx="22" cy="144" fill="#B4A7E5" rx="11" ry="11" style="stroke:#A80036;stroke-width:1.0;"/><path d="M22.9531,140.7813 L24.6719,140.7813 C25.0625,140.7813 25.25,140.75 25.375,140.6719 C25.6406,140.5156 25.7813,140.2344 25.7813,139.9375 C25.7813,139.6719 25.6719,139.4063 25.4375,139.2344 C25.2656,139.125 25.125,139.0938 24.6719,139.0938 L19.5313,139.0938 C19.0938,139.0938 18.9688,139.1094 18.8125,139.2031 C18.5625,139.3594 18.4063,139.6563 18.4063,139.9375 C18.4063,140.2188 18.5469,140.4688 18.7656,140.6406 C18.9219,140.75 19.1094,140.7813 19.5313,140.7813 L21.25,140.7813 L21.25,147.2969 L19.5313,147.2969 C19.0938,147.2969 18.9688,147.3125 18.8125,147.4219 C18.5625,147.5781 18.4063,147.8594 18.4063,148.1563 C18.4063,148.4063 18.5469,148.6719 18.7656,148.8281 C18.9219,148.9531 19.125,149 19.5313,149 L24.6719,149 C25.4219,149 25.7813,148.7188 25.7813,148.1563 C25.7813,147.875 25.6719,147.625 25.4375,147.4531 C25.2656,147.3281 25.125,147.2969 24.6719,147.2969 L22.9531,147.2969 L22.9531,140.7813 Z " fill="#000000"/><text fill="#000000" font-family="sans-serif" font-size="12" font-style="italic" lengthAdjust="spacing" textLength="84" x="36" y="148.1543">お腹の空き具合</text><line style="stroke:#A80036;stroke-width:1.5;" x1="8" x2="122" y1="160" y2="160"/><line style="stroke:#A80036;stroke-width:1.5;" x1="8" x2="122" y1="168" y2="168"/><text fill="#000000" font-family="sans-serif" font-size="11" lengthAdjust="spacing" textLength="84" x="13" y="182.2104">double 空腹率()</text><!--MD5=[19404b193802f6821697e7d46c65a429]
class 室内系な人--><rect fill="#FEFECE" filter="url(#fql5w4jdnj8z8)" height="48" id="室内系な人" style="stroke:#A80036;stroke-width:1.5;" width="92" x="158" y="134.5"/><ellipse cx="173" cy="150.5" fill="#ADD1B2" rx="11" ry="11" style="stroke:#A80036;stroke-width:1.0;"/><path d="M175.3438,146.1719 C174.4063,145.7344 173.8125,145.5938 172.9375,145.5938 C170.3125,145.5938 168.3125,147.6719 168.3125,150.3906 L168.3125,151.5156 C168.3125,154.0938 170.4219,155.9844 173.3125,155.9844 C174.5313,155.9844 175.6875,155.6875 176.4375,155.1406 C177.0156,154.7344 177.3438,154.2813 177.3438,153.8906 C177.3438,153.4375 176.9531,153.0469 176.4844,153.0469 C176.2656,153.0469 176.0625,153.125 175.875,153.3125 C175.4219,153.7969 175.4219,153.7969 175.2344,153.8906 C174.8125,154.1563 174.125,154.2813 173.3594,154.2813 C171.3125,154.2813 170.0156,153.1875 170.0156,151.4844 L170.0156,150.3906 C170.0156,148.6094 171.2656,147.2969 173,147.2969 C173.5781,147.2969 174.1875,147.4531 174.6563,147.7031 C175.1406,147.9844 175.3125,148.2031 175.4063,148.6094 C175.4688,149.0156 175.5,149.1406 175.6406,149.2656 C175.7813,149.4063 176.0156,149.5156 176.2344,149.5156 C176.5,149.5156 176.7656,149.375 176.9375,149.1563 C177.0469,149 177.0781,148.8125 177.0781,148.3906 L177.0781,146.9688 C177.0781,146.5313 177.0625,146.4063 176.9688,146.25 C176.8125,145.9844 176.5313,145.8438 176.2344,145.8438 C175.9375,145.8438 175.7344,145.9375 175.5156,146.25 L175.3438,146.1719 Z " fill="#000000"/><text fill="#000000" font-family="sans-serif" font-size="12" lengthAdjust="spacing" textLength="60" x="187" y="154.6543">室内系な人</text><line style="stroke:#A80036;stroke-width:1.5;" x1="159" x2="249" y1="166.5" y2="166.5"/><line style="stroke:#A80036;stroke-width:1.5;" x1="159" x2="249" y1="174.5" y2="174.5"/><!--MD5=[bd11b82e76671d8a22d871de56356792]
class 野外系な人--><rect fill="#FEFECE" filter="url(#fql5w4jdnj8z8)" height="48" id="野外系な人" style="stroke:#A80036;stroke-width:1.5;" width="92" x="285" y="134.5"/><ellipse cx="300" cy="150.5" fill="#ADD1B2" rx="11" ry="11" style="stroke:#A80036;stroke-width:1.0;"/><path d="M302.3438,146.1719 C301.4063,145.7344 300.8125,145.5938 299.9375,145.5938 C297.3125,145.5938 295.3125,147.6719 295.3125,150.3906 L295.3125,151.5156 C295.3125,154.0938 297.4219,155.9844 300.3125,155.9844 C301.5313,155.9844 302.6875,155.6875 303.4375,155.1406 C304.0156,154.7344 304.3438,154.2813 304.3438,153.8906 C304.3438,153.4375 303.9531,153.0469 303.4844,153.0469 C303.2656,153.0469 303.0625,153.125 302.875,153.3125 C302.4219,153.7969 302.4219,153.7969 302.2344,153.8906 C301.8125,154.1563 301.125,154.2813 300.3594,154.2813 C298.3125,154.2813 297.0156,153.1875 297.0156,151.4844 L297.0156,150.3906 C297.0156,148.6094 298.2656,147.2969 300,147.2969 C300.5781,147.2969 301.1875,147.4531 301.6563,147.7031 C302.1406,147.9844 302.3125,148.2031 302.4063,148.6094 C302.4688,149.0156 302.5,149.1406 302.6406,149.2656 C302.7813,149.4063 303.0156,149.5156 303.2344,149.5156 C303.5,149.5156 303.7656,149.375 303.9375,149.1563 C304.0469,149 304.0781,148.8125 304.0781,148.3906 L304.0781,146.9688 C304.0781,146.5313 304.0625,146.4063 303.9688,146.25 C303.8125,145.9844 303.5313,145.8438 303.2344,145.8438 C302.9375,145.8438 302.7344,145.9375 302.5156,146.25 L302.3438,146.1719 Z " fill="#000000"/><text fill="#000000" font-family="sans-serif" font-size="12" lengthAdjust="spacing" textLength="60" x="314" y="154.6543">野外系な人</text><line style="stroke:#A80036;stroke-width:1.5;" x1="286" x2="376" y1="166.5" y2="166.5"/><line style="stroke:#A80036;stroke-width:1.5;" x1="286" x2="376" y1="174.5" y2="174.5"/><!--MD5=[893f94058879fb7fcf29e4ff3747996a]
reverse link 食べる人 to 室内系な人--><path codeLine="13" d="M204,73.391 C204,93.0925 204,117.1639 204,134.4994 " fill="none" id="食べる人-backto-室内系な人" style="stroke:#A80036;stroke-width:1.0;"/><polygon fill="#A80036" points="204,68.222,200,77.222,204,73.222,208,77.222,204,68.222" style="stroke:#A80036;stroke-width:1.0;"/><!--MD5=[6a063c6586fee6329b59e6157efa2d12]
reverse link 食べる人 to 野外系な人--><path codeLine="14" d="M239.37,71.642 C260.726,91.6525 287.401,116.6476 306.453,134.4994 " fill="none" id="食べる人-backto-野外系な人" style="stroke:#A80036;stroke-width:1.0;"/><polygon fill="#A80036" points="235.72,68.222,239.5527,77.2945,239.3687,71.6407,245.0225,71.4567,235.72,68.222" style="stroke:#A80036;stroke-width:1.0;"/><!--MD5=[32b1ba0d66df9e7ea9d2ecc3334fab7a]
link 食べる人 to お腹の空き具合--><path codeLine="16" d="M169.283,68.222 C148.054,86.396 120.992,109.5644 99.7562,127.7447 " fill="none" id="食べる人-お腹の空き具合" style="stroke:#A80036;stroke-width:1.0;"/><!--MD5=[ffc95a62ec7b5d58ed54ece074b71059]
link 料理する人 to お腹の空き具合--><path codeLine="17" d="M65,68.222 C65,86.396 65,109.5644 65,127.7447 " fill="none" id="料理する人-お腹の空き具合" style="stroke:#A80036;stroke-width:1.0;"/><!--MD5=[2931bf95d8779f94144d599222ebed6e]
@startuml
class 料理する人 {
    void ご飯を作る()
}

abstract class 食べる人 {
    double 空腹率
}

interface お腹の空き具合 {
    double 空腹率()
}

食べる人 <- - 室内系な人
食べる人 <- - 野外系な人

食べる人 - - お腹の空き具合
料理する人 - - お腹の空き具合
@enduml

PlantUML version 1.2021.3beta7(Unknown compile time)
(GPL source distribution)
Java Runtime: Java(TM) SE Runtime Environment
JVM: Java HotSpot(TM) 64-Bit Server VM
Default Encoding: UTF-8
Language: en
Country: US
--></g></svg>