<?xml version="1.0" encoding="UTF-8" standalone="no"?><svg xmlns="http://www.w3.org/2000/svg" xmlns:xlink="http://www.w3.org/1999/xlink" contentScriptType="application/ecmascript" contentStyleType="text/css" height="190px" preserveAspectRatio="none" style="width:336px;height:190px;" version="1.1" viewBox="0 0 336 190" width="336px" zoomAndPan="magnify"><defs><filter height="300%" id="f9vrhdah2qv8p" width="300%" x="-1" y="-1"><feGaussianBlur result="blurOut" stdDeviation="2.0"/><feColorMatrix in="blurOut" result="blurOut2" type="matrix" values="0 0 0 0 0 0 0 0 0 0 0 0 0 0 0 0 0 0 .4 0"/><feOffset dx="4.0" dy="4.0" in="blurOut2" result="blurOut3"/><feBlend in="SourceGraphic" in2="blurOut3" mode="normal"/></filter></defs><g><!--MD5=[1c69cb5800dab547d79c19121725b5a2]
class 料理する人--><rect codeLine="1" fill="#FEFECE" filter="url(#f9vrhdah2qv8p)" height="60.8047" id="料理する人" style="stroke:#A80036;stroke-width:1.5;" width="96" x="128" y="7"/><ellipse cx="144.8" cy="23" fill="#A9DCDF" rx="11" ry="11" style="stroke:#A80036;stroke-width:1.0;"/><path d="M146.8781,24.8125 L147.2688,25.7969 L146.8781,25.7969 C146.425,25.7969 146.3156,25.8125 146.1594,25.9219 C145.9094,26.0781 145.7531,26.3594 145.7531,26.6563 C145.7531,26.9219 145.8938,27.1719 146.1125,27.3281 C146.2531,27.4531 146.4563,27.5 146.8781,27.5 L149.2375,27.5 C149.5969,27.5 149.8156,27.4688 149.9563,27.375 C150.2063,27.2344 150.3625,26.9375 150.3625,26.6563 C150.3625,26.375 150.2219,26.125 150.0031,25.9688 C149.8313,25.8281 149.675,25.7969 149.2063,25.7969 L145.8156,17.5938 L142.1438,17.5938 C141.6906,17.5938 141.5656,17.6094 141.4094,17.7031 C141.1594,17.875 141.0031,18.1563 141.0031,18.4375 C141.0031,18.7188 141.1438,18.9688 141.3625,19.1406 C141.5344,19.25 141.7063,19.2813 142.1438,19.2813 L143.2219,19.2813 L140.5813,25.7969 C140.1594,25.7969 140.0031,25.8125 139.8469,25.9219 C139.5969,26.0781 139.4406,26.3594 139.4406,26.6563 C139.4406,27.2188 139.8156,27.5 140.5656,27.5 L142.8313,27.5 C143.1906,27.5 143.4094,27.4688 143.5344,27.375 C143.8,27.2344 143.9406,26.9375 143.9406,26.6563 C143.9406,26.375 143.8156,26.125 143.5969,25.9531 C143.425,25.8281 143.2844,25.7969 142.8313,25.7969 L142.4406,25.7969 L142.8313,24.8125 L146.8781,24.8125 Z M146.175,23.1094 L143.5031,23.1094 L144.8469,19.8438 L146.175,23.1094 Z " fill="#000000"/><text fill="#000000" font-family="sans-serif" font-size="12" font-style="italic" lengthAdjust="spacing" textLength="60" x="159.2" y="27.1543">料理する人</text><line style="stroke:#A80036;stroke-width:1.5;" x1="129" x2="223" y1="39" y2="39"/><text fill="#000000" font-family="sans-serif" font-size="11" lengthAdjust="spacing" textLength="84" x="134" y="53.2104">int 器具の耐久力</text><line style="stroke:#A80036;stroke-width:1.5;" x1="129" x2="223" y1="59.8047" y2="59.8047"/><!--MD5=[d7138d1af84b3c9b81fa248f97481e58]
class フライパンで料理する人--><rect codeLine="5" fill="#FEFECE" filter="url(#f9vrhdah2qv8p)" height="48" id="フライパンで料理する人" style="stroke:#A80036;stroke-width:1.5;" width="164" x="7" y="128"/><ellipse cx="22" cy="144" fill="#ADD1B2" rx="11" ry="11" style="stroke:#A80036;stroke-width:1.0;"/><path d="M24.3438,139.6719 C23.4063,139.2344 22.8125,139.0938 21.9375,139.0938 C19.3125,139.0938 17.3125,141.1719 17.3125,143.8906 L17.3125,145.0156 C17.3125,147.5938 19.4219,149.4844 22.3125,149.4844 C23.5313,149.4844 24.6875,149.1875 25.4375,148.6406 C26.0156,148.2344 26.3438,147.7813 26.3438,147.3906 C26.3438,146.9375 25.9531,146.5469 25.4844,146.5469 C25.2656,146.5469 25.0625,146.625 24.875,146.8125 C24.4219,147.2969 24.4219,147.2969 24.2344,147.3906 C23.8125,147.6563 23.125,147.7813 22.3594,147.7813 C20.3125,147.7813 19.0156,146.6875 19.0156,144.9844 L19.0156,143.8906 C19.0156,142.1094 20.2656,140.7969 22,140.7969 C22.5781,140.7969 23.1875,140.9531 23.6563,141.2031 C24.1406,141.4844 24.3125,141.7031 24.4063,142.1094 C24.4688,142.5156 24.5,142.6406 24.6406,142.7656 C24.7813,142.9063 25.0156,143.0156 25.2344,143.0156 C25.5,143.0156 25.7656,142.875 25.9375,142.6563 C26.0469,142.5 26.0781,142.3125 26.0781,141.8906 L26.0781,140.4688 C26.0781,140.0313 26.0625,139.9063 25.9688,139.75 C25.8125,139.4844 25.5313,139.3438 25.2344,139.3438 C24.9375,139.3438 24.7344,139.4375 24.5156,139.75 L24.3438,139.6719 Z " fill="#000000"/><text fill="#000000" font-family="sans-serif" font-size="12" lengthAdjust="spacing" textLength="132" x="36" y="148.1543">フライパンで料理する人</text><line style="stroke:#A80036;stroke-width:1.5;" x1="8" x2="170" y1="160" y2="160"/><line style="stroke:#A80036;stroke-width:1.5;" x1="8" x2="170" y1="168" y2="168"/><!--MD5=[da7aff1a5e9c0fbeb8fde878b72c6548]
class 鍋で料理する人--><rect codeLine="8" fill="#FEFECE" filter="url(#f9vrhdah2qv8p)" height="48" id="鍋で料理する人" style="stroke:#A80036;stroke-width:1.5;" width="116" x="206" y="128"/><ellipse cx="221" cy="144" fill="#ADD1B2" rx="11" ry="11" style="stroke:#A80036;stroke-width:1.0;"/><path d="M223.3438,139.6719 C222.4063,139.2344 221.8125,139.0938 220.9375,139.0938 C218.3125,139.0938 216.3125,141.1719 216.3125,143.8906 L216.3125,145.0156 C216.3125,147.5938 218.4219,149.4844 221.3125,149.4844 C222.5313,149.4844 223.6875,149.1875 224.4375,148.6406 C225.0156,148.2344 225.3438,147.7813 225.3438,147.3906 C225.3438,146.9375 224.9531,146.5469 224.4844,146.5469 C224.2656,146.5469 224.0625,146.625 223.875,146.8125 C223.4219,147.2969 223.4219,147.2969 223.2344,147.3906 C222.8125,147.6563 222.125,147.7813 221.3594,147.7813 C219.3125,147.7813 218.0156,146.6875 218.0156,144.9844 L218.0156,143.8906 C218.0156,142.1094 219.2656,140.7969 221,140.7969 C221.5781,140.7969 222.1875,140.9531 222.6563,141.2031 C223.1406,141.4844 223.3125,141.7031 223.4063,142.1094 C223.4688,142.5156 223.5,142.6406 223.6406,142.7656 C223.7813,142.9063 224.0156,143.0156 224.2344,143.0156 C224.5,143.0156 224.7656,142.875 224.9375,142.6563 C225.0469,142.5 225.0781,142.3125 225.0781,141.8906 L225.0781,140.4688 C225.0781,140.0313 225.0625,139.9063 224.9688,139.75 C224.8125,139.4844 224.5313,139.3438 224.2344,139.3438 C223.9375,139.3438 223.7344,139.4375 223.5156,139.75 L223.3438,139.6719 Z " fill="#000000"/><text fill="#000000" font-family="sans-serif" font-size="12" lengthAdjust="spacing" textLength="84" x="235" y="148.1543">鍋で料理する人</text><line style="stroke:#A80036;stroke-width:1.5;" x1="207" x2="321" y1="160" y2="160"/><line style="stroke:#A80036;stroke-width:1.5;" x1="207" x2="321" y1="168" y2="168"/><!--MD5=[b661a2a86a2d93b4b6c51a17a227d198]
reverse link 料理する人 to フライパンで料理する人--><path codeLine="11" d="M150.049,72.057 C136.19,89.9779 119.476,111.5912 107.043,127.6686 " fill="none" id="料理する人-backto-フライパンで料理する人" style="stroke:#A80036;stroke-width:1.0;"/><polygon fill="#A80036" points="153.142,68.058,144.4716,72.7297,150.0829,72.013,150.7996,77.6242,153.142,68.058" style="stroke:#A80036;stroke-width:1.0;"/><!--MD5=[db204128de4b2517aa3283d205b3d150]
reverse link 料理する人 to 鍋で料理する人--><path codeLine="12" d="M202.249,72.057 C216.267,89.9779 233.174,111.5912 245.75,127.6686 " fill="none" id="料理する人-backto-鍋で料理する人" style="stroke:#A80036;stroke-width:1.0;"/><polygon fill="#A80036" points="199.121,68.058,201.5164,77.6111,202.202,71.996,207.8171,72.6816,199.121,68.058" style="stroke:#A80036;stroke-width:1.0;"/><!--MD5=[abd840b9e70fadfc732207e7b45e7570]
@startuml
abstract class 料理する人 {
      int 器具の耐久力
}

class フライパンで料理する人 {
}

class 鍋で料理する人 {
}

料理する人 <- - フライパンで料理する人
料理する人 <- - 鍋で料理する人
@enduml

PlantUML version 1.2021.3beta7(Unknown compile time)
(GPL source distribution)
Java Runtime: Java(TM) SE Runtime Environment
JVM: Java HotSpot(TM) 64-Bit Server VM
Default Encoding: UTF-8
Language: en
Country: US
--></g></svg>