<?xml version="1.0" encoding="UTF-8" standalone="no"?><svg xmlns="http://www.w3.org/2000/svg" xmlns:xlink="http://www.w3.org/1999/xlink" contentScriptType="application/ecmascript" contentStyleType="text/css" height="337px" preserveAspectRatio="none" style="width:192px;height:337px;" version="1.1" viewBox="0 0 192 337" width="192px" zoomAndPan="magnify"><defs><filter height="300%" id="fn52g6mehhn2k" width="300%" x="-1" y="-1"><feGaussianBlur result="blurOut" stdDeviation="2.0"/><feColorMatrix in="blurOut" result="blurOut2" type="matrix" values="0 0 0 0 0 0 0 0 0 0 0 0 0 0 0 0 0 0 .4 0"/><feOffset dx="4.0" dy="4.0" in="blurOut2" result="blurOut3"/><feBlend in="SourceGraphic" in2="blurOut3" mode="normal"/></filter></defs><g><!--MD5=[1c69cb5800dab547d79c19121725b5a2]
class 料理する人--><rect codeLine="1" fill="#FEFECE" filter="url(#fn52g6mehhn2k)" height="73.6094" id="料理する人" style="stroke:#A80036;stroke-width:1.5;" width="92" x="58" y="7"/><ellipse cx="73" cy="23" fill="#ADD1B2" rx="11" ry="11" style="stroke:#A80036;stroke-width:1.0;"/><path d="M75.3438,18.6719 C74.4063,18.2344 73.8125,18.0938 72.9375,18.0938 C70.3125,18.0938 68.3125,20.1719 68.3125,22.8906 L68.3125,24.0156 C68.3125,26.5938 70.4219,28.4844 73.3125,28.4844 C74.5313,28.4844 75.6875,28.1875 76.4375,27.6406 C77.0156,27.2344 77.3438,26.7813 77.3438,26.3906 C77.3438,25.9375 76.9531,25.5469 76.4844,25.5469 C76.2656,25.5469 76.0625,25.625 75.875,25.8125 C75.4219,26.2969 75.4219,26.2969 75.2344,26.3906 C74.8125,26.6563 74.125,26.7813 73.3594,26.7813 C71.3125,26.7813 70.0156,25.6875 70.0156,23.9844 L70.0156,22.8906 C70.0156,21.1094 71.2656,19.7969 73,19.7969 C73.5781,19.7969 74.1875,19.9531 74.6563,20.2031 C75.1406,20.4844 75.3125,20.7031 75.4063,21.1094 C75.4688,21.5156 75.5,21.6406 75.6406,21.7656 C75.7813,21.9063 76.0156,22.0156 76.2344,22.0156 C76.5,22.0156 76.7656,21.875 76.9375,21.6563 C77.0469,21.5 77.0781,21.3125 77.0781,20.8906 L77.0781,19.4688 C77.0781,19.0313 77.0625,18.9063 76.9688,18.75 C76.8125,18.4844 76.5313,18.3438 76.2344,18.3438 C75.9375,18.3438 75.7344,18.4375 75.5156,18.75 L75.3438,18.6719 Z " fill="#000000"/><text fill="#000000" font-family="sans-serif" font-size="12" lengthAdjust="spacing" textLength="60" x="87" y="27.1543">料理する人</text><line style="stroke:#A80036;stroke-width:1.5;" x1="59" x2="149" y1="39" y2="39"/><text fill="#000000" font-family="sans-serif" font-size="11" lengthAdjust="spacing" textLength="70" x="64" y="53.2104">調理器具 器具</text><line style="stroke:#A80036;stroke-width:1.5;" x1="59" x2="149" y1="59.8047" y2="59.8047"/><text fill="#000000" font-family="sans-serif" font-size="11" lengthAdjust="spacing" textLength="80" x="64" y="74.0151">void 料理する()</text><!--MD5=[8d8c5d5ac2a165ff52688fcb1bc0f240]
class 調理器具--><rect codeLine="6" fill="#FEFECE" filter="url(#fn52g6mehhn2k)" height="73.6094" id="調理器具" style="stroke:#A80036;stroke-width:1.5;" width="80" x="64" y="141"/><ellipse cx="79" cy="157" fill="#A9DCDF" rx="11" ry="11" style="stroke:#A80036;stroke-width:1.0;"/><path d="M81.0781,158.8125 L81.4688,159.7969 L81.0781,159.7969 C80.625,159.7969 80.5156,159.8125 80.3594,159.9219 C80.1094,160.0781 79.9531,160.3594 79.9531,160.6563 C79.9531,160.9219 80.0938,161.1719 80.3125,161.3281 C80.4531,161.4531 80.6563,161.5 81.0781,161.5 L83.4375,161.5 C83.7969,161.5 84.0156,161.4688 84.1563,161.375 C84.4063,161.2344 84.5625,160.9375 84.5625,160.6563 C84.5625,160.375 84.4219,160.125 84.2031,159.9688 C84.0313,159.8281 83.875,159.7969 83.4063,159.7969 L80.0156,151.5938 L76.3438,151.5938 C75.8906,151.5938 75.7656,151.6094 75.6094,151.7031 C75.3594,151.875 75.2031,152.1563 75.2031,152.4375 C75.2031,152.7188 75.3438,152.9688 75.5625,153.1406 C75.7344,153.25 75.9063,153.2813 76.3438,153.2813 L77.4219,153.2813 L74.7813,159.7969 C74.3594,159.7969 74.2031,159.8125 74.0469,159.9219 C73.7969,160.0781 73.6406,160.3594 73.6406,160.6563 C73.6406,161.2188 74.0156,161.5 74.7656,161.5 L77.0313,161.5 C77.3906,161.5 77.6094,161.4688 77.7344,161.375 C78,161.2344 78.1406,160.9375 78.1406,160.6563 C78.1406,160.375 78.0156,160.125 77.7969,159.9531 C77.625,159.8281 77.4844,159.7969 77.0313,159.7969 L76.6406,159.7969 L77.0313,158.8125 L81.0781,158.8125 Z M80.375,157.1094 L77.7031,157.1094 L79.0469,153.8438 L80.375,157.1094 Z " fill="#000000"/><text fill="#000000" font-family="sans-serif" font-size="12" font-style="italic" lengthAdjust="spacing" textLength="48" x="93" y="161.1543">調理器具</text><line style="stroke:#A80036;stroke-width:1.5;" x1="65" x2="143" y1="173" y2="173"/><text fill="#000000" font-family="sans-serif" font-size="11" lengthAdjust="spacing" textLength="51" x="70" y="187.2104">int 耐久力</text><text fill="#000000" font-family="sans-serif" font-size="11" lengthAdjust="spacing" textLength="50" x="70" y="200.0151">bool 使う</text><line style="stroke:#A80036;stroke-width:1.5;" x1="65" x2="143" y1="206.6094" y2="206.6094"/><!--MD5=[70f381d40b0c52d911344f169437aada]
class フライパン--><rect fill="#FEFECE" filter="url(#fn52g6mehhn2k)" height="48" id="フライパン" style="stroke:#A80036;stroke-width:1.5;" width="92" x="7" y="275"/><ellipse cx="22" cy="291" fill="#ADD1B2" rx="11" ry="11" style="stroke:#A80036;stroke-width:1.0;"/><path d="M24.3438,286.6719 C23.4063,286.2344 22.8125,286.0938 21.9375,286.0938 C19.3125,286.0938 17.3125,288.1719 17.3125,290.8906 L17.3125,292.0156 C17.3125,294.5938 19.4219,296.4844 22.3125,296.4844 C23.5313,296.4844 24.6875,296.1875 25.4375,295.6406 C26.0156,295.2344 26.3438,294.7813 26.3438,294.3906 C26.3438,293.9375 25.9531,293.5469 25.4844,293.5469 C25.2656,293.5469 25.0625,293.625 24.875,293.8125 C24.4219,294.2969 24.4219,294.2969 24.2344,294.3906 C23.8125,294.6563 23.125,294.7813 22.3594,294.7813 C20.3125,294.7813 19.0156,293.6875 19.0156,291.9844 L19.0156,290.8906 C19.0156,289.1094 20.2656,287.7969 22,287.7969 C22.5781,287.7969 23.1875,287.9531 23.6563,288.2031 C24.1406,288.4844 24.3125,288.7031 24.4063,289.1094 C24.4688,289.5156 24.5,289.6406 24.6406,289.7656 C24.7813,289.9063 25.0156,290.0156 25.2344,290.0156 C25.5,290.0156 25.7656,289.875 25.9375,289.6563 C26.0469,289.5 26.0781,289.3125 26.0781,288.8906 L26.0781,287.4688 C26.0781,287.0313 26.0625,286.9063 25.9688,286.75 C25.8125,286.4844 25.5313,286.3438 25.2344,286.3438 C24.9375,286.3438 24.7344,286.4375 24.5156,286.75 L24.3438,286.6719 Z " fill="#000000"/><text fill="#000000" font-family="sans-serif" font-size="12" lengthAdjust="spacing" textLength="60" x="36" y="295.1543">フライパン</text><line style="stroke:#A80036;stroke-width:1.5;" x1="8" x2="98" y1="307" y2="307"/><line style="stroke:#A80036;stroke-width:1.5;" x1="8" x2="98" y1="315" y2="315"/><!--MD5=[544e7ab61267c5d4d69017cbbf404487]
class 鍋--><rect fill="#FEFECE" filter="url(#fn52g6mehhn2k)" height="48" id="鍋" style="stroke:#A80036;stroke-width:1.5;" width="44" x="134" y="275"/><ellipse cx="149" cy="291" fill="#ADD1B2" rx="11" ry="11" style="stroke:#A80036;stroke-width:1.0;"/><path d="M151.3438,286.6719 C150.4063,286.2344 149.8125,286.0938 148.9375,286.0938 C146.3125,286.0938 144.3125,288.1719 144.3125,290.8906 L144.3125,292.0156 C144.3125,294.5938 146.4219,296.4844 149.3125,296.4844 C150.5313,296.4844 151.6875,296.1875 152.4375,295.6406 C153.0156,295.2344 153.3438,294.7813 153.3438,294.3906 C153.3438,293.9375 152.9531,293.5469 152.4844,293.5469 C152.2656,293.5469 152.0625,293.625 151.875,293.8125 C151.4219,294.2969 151.4219,294.2969 151.2344,294.3906 C150.8125,294.6563 150.125,294.7813 149.3594,294.7813 C147.3125,294.7813 146.0156,293.6875 146.0156,291.9844 L146.0156,290.8906 C146.0156,289.1094 147.2656,287.7969 149,287.7969 C149.5781,287.7969 150.1875,287.9531 150.6563,288.2031 C151.1406,288.4844 151.3125,288.7031 151.4063,289.1094 C151.4688,289.5156 151.5,289.6406 151.6406,289.7656 C151.7813,289.9063 152.0156,290.0156 152.2344,290.0156 C152.5,290.0156 152.7656,289.875 152.9375,289.6563 C153.0469,289.5 153.0781,289.3125 153.0781,288.8906 L153.0781,287.4688 C153.0781,287.0313 153.0625,286.9063 152.9688,286.75 C152.8125,286.4844 152.5313,286.3438 152.2344,286.3438 C151.9375,286.3438 151.7344,286.4375 151.5156,286.75 L151.3438,286.6719 Z " fill="#000000"/><text fill="#000000" font-family="sans-serif" font-size="12" lengthAdjust="spacing" textLength="12" x="163" y="295.1543">鍋</text><line style="stroke:#A80036;stroke-width:1.5;" x1="135" x2="177" y1="307" y2="307"/><line style="stroke:#A80036;stroke-width:1.5;" x1="135" x2="177" y1="315" y2="315"/><!--MD5=[b758ae2fe7f6c452a2dc0c668e0fb808]
link 料理する人 to 調理器具--><path codeLine="11" d="M104,81.07 C104,95.475 104,112.294 104,127.791 " fill="none" id="料理する人-to-調理器具" style="stroke:#A80036;stroke-width:1.0;"/><polygon fill="#FFFFFF" points="104,140.974,108,134.974,104,128.974,100,134.974,104,140.974" style="stroke:#A80036;stroke-width:1.0;"/><!--MD5=[4c9a5e24e5276f7e89a1a1ce11c8f8e5]
reverse link 調理器具 to フライパン--><path codeLine="12" d="M86.5794,219.648 C78.6832,238.0724 69.6345,259.1863 62.9212,274.8505 " fill="none" id="調理器具-backto-フライパン" style="stroke:#A80036;stroke-width:1.0;"/><polygon fill="#A80036" points="88.5599,215.027,81.3375,221.7231,86.59,219.6226,88.6905,224.875,88.5599,215.027" style="stroke:#A80036;stroke-width:1.0;"/><!--MD5=[bba22a473f1ed625761136ff3d9d935b]
reverse link 調理器具 to 鍋--><path codeLine="13" d="M121.762,219.648 C129.813,238.0724 139.039,259.1863 145.884,274.8505 " fill="none" id="調理器具-backto-鍋" style="stroke:#A80036;stroke-width:1.0;"/><polygon fill="#A80036" points="119.743,215.027,119.6793,224.8757,121.7441,219.6091,127.0107,221.6739,119.743,215.027" style="stroke:#A80036;stroke-width:1.0;"/><!--MD5=[dd204f9c55da4be5d2d03edcd6c10415]
@startuml
class 料理する人 {
    調理器具 器具
    void 料理する()
}

abstract class 調理器具 {
    int 耐久力
    bool 使う
}

料理する人 - -o 調理器具
調理器具 <- - フライパン
調理器具 <- - 鍋
@enduml

PlantUML version 1.2021.4beta3(Unknown compile time)
(GPL source distribution)
Java Runtime: Java(TM) SE Runtime Environment
JVM: Java HotSpot(TM) 64-Bit Server VM
Default Encoding: UTF-8
Language: en
Country: US
--></g></svg>